<svg width="60" height="60" viewBox="0 0 60 60" fill="none" xmlns="http://www.w3.org/2000/svg">
    <circle cx="30" cy="30" r="30" fill="#F0B90B"/>
    <path d="M17.5784 26.4351L21.1569 30.0122L17.5784 33.5893L14 30.0122L17.5784 26.4351Z" fill="white"/>
    <path d="M30 26.4351L33.5784 30.0122L30 33.5893L26.4216 30.0122L30 26.4351Z" fill="white"/>
    <path d="M42.4216 26.4351L46 30.0122L42.4216 33.5893L38.8431 30.0122L42.4216 26.4351Z" fill="white"/>
    <path d="M30.034 14L39.8293 23.7916L36.2509 27.3687L26.4556 17.5771L30.034 14Z" fill="white"/>
    <path d="M30.0462 14L20.2509 23.7916L23.8293 27.3687L33.6246 17.5771L30.0462 14Z" fill="white"/>
    <path d="M30.034 46L39.8293 36.2084L36.2509 32.6313L26.4556 42.4229L30.034 46Z" fill="white"/>
    <path d="M30.0462 46L20.2509 36.2084L23.8293 32.6313L33.6246 42.4229L30.0462 46Z" fill="white"/>
</svg>
