<svg xmlns="http://www.w3.org/2000/svg" viewBox="70.390625 142 296.25937667846677 255"> <svg xmlns="http://www.w3.org/2000/svg" xmlns:xlink="http://www.w3.org/1999/xlink" version="1.1" id="Layer_1" x="140.390625" y="212" viewBox="299.1999816894531 43.900001525878906 1057.6278076171875 1412.4000244140625" xml:space="preserve" height="115" width="86.109375" preserveAspectRatio="xMinYMin" enable-background="new 0 0 1500 1500" style="overflow: visible;"><path class="st4" d="M736,1451.8c-60-26.8-120.2-64.6-178.9-112.3c-46.6-38-92.5-82.3-136.2-131.7   c-74.4-84.2-116.6-153.4-118.3-156.3l-3.4-5.6V409.1l88-35.5c8.3-79.1,16.7-170.6,12.8-214.1L389.9,43.9l37.4,18.3   c4.1,2,101.3,50.6,154.3,170.6c8.5,19.4,16.9,36.9,24.8,52.4L745.6,229l224.5,90.6c19-30.2,33.3-59.1,48.4-89.4   c5.1-10.2,10.3-20.8,15.9-31.7c42.2-82.5,92.6-114.8,94.7-116.2l43.7-27.5l-7.9,51c-0.6,4-15.6,99.6-35.9,150.1   c-4.3,10.8-9.2,22-13.8,32.9c-11.3,26.3-24.7,57.7-28.6,77.7l105.5,42.6v362.7c19.6,18.6,27.9,29.8,33.5,37.5   c3.4,4.6,4.5,6.1,6.5,7.6c4,3.1,10,5.4,16.8,8c11.5,4.4,25.9,9.8,39.8,22.5c1.5,1.4,3.4,3,5.3,4.8c11.5,10.1,28.8,25.5,42.1,43.3   c19.1,25.5,25,49.6,17.7,71.7c-7.3,22-17.7,33.9-25.2,42.6c-6.6,7.6-9,10.4-10,18.3c-0.9,7.4-1.1,14.2-1.4,20.9   c-0.7,19.1-1.5,38.9-17.6,58.6c-10.5,12.8-28.5,21.7-45.9,30.4c-9.5,4.7-25.2,12.5-28.9,16.9c-12.3,26.6-26.4,32.8-49.6,35.4   c-1.5,0.2-3.2,0.3-5,0.3c-10.1,0-27.3-2.6-54.5-6.8c-7.2-1.1-14.6-2.3-21.8-3.3c-75.4,90-193,206.5-338.7,271.5l-9.6,4.3   L736,1451.8z" style="fill: #333333;"></path><path d="M745.5,254.4L323,425v614.4c0,0,167.6,277.3,422.5,391c254.9-113.7,422.5-391,422.5-391V425L745.5,254.4z" style=""></path><path class="st11" d="M745.6,1401.7c-218.6-102.5-371.2-330-396.7-369.9V442.6l396.7-160.1l396.7,160.1v589.3    C1116.8,1071.6,963.9,1299.3,745.6,1401.7z" style="fill: #1A1A1A;"></path><path d="M1331.4,959.8c-12.1,36.2-32.8,36.2-36.2,65.6c-3.4,29.3,1.7,48.3-13.8,67.3c-15.5,19-69,32.8-77.7,51.8      c-8.6,19-15.5,20.7-31.1,22.4c-13.2,1.5-80.2-12.1-117.9-15c-6.6-0.5-12.3-0.7-16.7-0.5c-29.3,1.7-55.2,3.4-81.1,3.4      s-48.3-3.4-48.3-3.4s7.5,69.9,19.3,130.7c-8.1,7.1-16.3,14-24.8,21c-47.2,38.6-100.1,74.2-157.5,101.1      c-93.6-43.9-175.2-110.8-239.8-176c-8.6-8.6-16.8-17.2-24.8-25.7c-26.3-28.2-49.2-55.4-68.4-79.6c-7.5-9.5-14.4-18.5-20.7-26.9      c22.1-110.7,56-261.5,87.1-320.6C370.4,623.3,361.8,633.7,370.4,588.8c8.6-44.9,29.3-93.2,31.1-124.2c0.4-6.9,2-22.1,4.2-42.6      c7.8-71.7,22.9-206.8,17.8-264.6C417,83.3,417,83.3,417,83.3s93,45.4,143.1,159c19.9,45.2,36.3,75.7,50.1,97.2      c20.9,32.6,35.9,44.7,48.3,56.1c20.7,19,19,39.7,19,39.7s179.5-13.8,226,6.9c23.8-25.2,43-48.2,59-69.8      c43.2-58.2,63.9-106.5,92.8-163.1c39.7-77.6,86.3-107,86.3-107s-14.9,96.3-34.5,144.9c-19.6,48.6-48.3,105.3-44.9,134.6      c1,8.6,1.9,19.7,2.4,31.8c1.4,29.3,1.2,64.8-2.4,85.5c-5.2,29.3-1.7,48.3-1.7,48.3s15.5,31,39.7,51.8      c24.2,20.7,34.5,32.8,31.1,53.5c-3.5,20.7-22.4,63.9-10.3,89.7c7.9,6.2,15,11.9,21.4,17.2c65.5,54,61.1,65,75.2,76      c15.5,12.1,36.2,12.1,55.2,29.3C1291.8,882.1,1343.5,923.6,1331.4,959.8z" style=""></path><path class="st4" d="M1240.9,1031c-10.4-19.4-49.2-31.1-75.1-49.2c-10.1-7.1-17.8-17.2-23.4-27c-8.9-15.4-12.8-29.9-12.8-29.9      s-25.9-10.3-32.4-23.3c-2.7-5.4-6.5-13.5-10.8-21.6c0,0,0,0,0,0c-6-11.3-12.9-22.5-18.9-26.2c-10.1-6.3-56.4-41.3-58.2-42.7      c1.9,0.5,63.6,17.1,78.9,38.8c15.5,22,40.1,45.3,40.1,45.3s2.6-9.1,13-23.3c-6.5-3.9-29.8-6-29.8-6s6.5-5.6,29.8-6.9      c0.4,0,0.8,0,1.1-0.1c19.1-0.8,53,4.3,65.2,6.2c0.8,0.1,1.5,0.2,2.1,0.3c1.6,0.3,2.5,0.4,2.5,0.4c-0.5-0.3-1-0.5-1.5-0.8      c-3.6-1.9-7.1-4.2-10.6-6.9c-7.7-6-12.2-12-16.5-17.9c-5.8-7.9-14.5-19.8-41.3-43.3c-10.1-8.9-22.8-19.4-38.9-32.1c0,0,0,0,0,0      s0,0-0.1-0.1l-0.1-0.1c-1-0.8-1.9-1.6-2.7-2.5c0,0-0.1-0.1-0.1-0.1c-11.7-10.8-52.6-49-62.6-62.3c-11.7-15.5,0-93.2,0-93.2      s6.5,10.3,20.7,41.4c6.2-3,20.9-2.4,31.8-1.5h0c7.4,0.7,13,1.5,13,1.5c0.7-4.4,1.3-7.7-21.5-27.2      c-19.6-16.8-33.8-38.2-41.1-50.7c0,0-24.9-20.5-44.3-56.7c8.5,9.3,24.7,19.2,34.9,24.9c-0.5-10.3-0.2-25.5,3.1-44.1      c3.8-21.5,3.3-63.2,1.3-92.3c-0.5-6.3-0.9-11.9-1.5-16.7c-3.6-30.5,14.4-72.4,33.4-116.7c4.5-10.6,9.2-21.6,13.4-31.8      c3.7-9.2,7.3-20.4,10.6-32.4c0.2-0.7,0.4-1.4,0.6-2.2c-0.3,0.5-0.7,1.1-1,1.7c-1,1.7-2,3.4-3,5.2c-2.4,4.3-4.8,8.8-7.2,13.4      c-5.4,10.6-10.7,21.2-15.7,31.3c-21.1,42.3-41.4,83.1-75.3,129.9c-17.5,24.2-38.7,50-65.5,78.3c0,0,12.5,15.4,6.1,41.3      c-9.4-21.2-33.3-32.6-37.6-34.5c-0.2,0-0.3-0.1-0.4-0.1c-0.2-0.1-0.3-0.1-0.3-0.1l-22.6-5.1c-8.6-1.2-20.3-2.3-35.8-3      c3.3,5.1,9.3,13.2,17,19c9.3,6.9,15.5,15,23.4,27.2c2.4,3.7,5,7.8,7.8,12.3c12.3,19.4,17.5,15.5,44.6,31.1      c27.2,15.5,41.4,20.7,49.2,38.8c5.4,12.6,3.3,19,8.1,47.3c2.1,12.2,5.5,28.5,11.3,51.1c-8.1-10.8-20.1-39.4-28.3-62.3      c-3.5-9.8-6.3-18.6-7.9-24.4c-5.2-19.4-25.9-32.3-40.1-38.7c-14.2-6.5-37.5-24.4-37.5-24.4s-10.4-17.8-25.9-37.2      c-1.2-1.5-2.7-3-4.5-4.5c-0.1,0-0.1-0.1-0.2-0.1c-1.8-1.5-3.7-3-6-4.6c-17.7-12.2-48.3-24.8-64.8-31.2c-4.6,0-9.1,0.1-13.6,0.2      c-11.9,0.3-23.4,0.7-33.9,1.1c0,0-2.7,0.8-7.1,2.5c-12.9,4.7-41,16.1-64.1,33.4c0-0.1,0-0.1,0-0.2c2.7-18,15.5-32.6,15.5-32.6      c-7.7,0-15.1-2.3-20.4-8.1c-5.8-6.4-8.5-13.8-7.2-22.2c-0.2-2.2-1.4-9.3-9.7-16.9c-1.2-1.1-2.3-2.2-3.6-3.2      c-13.5-12.2-30.1-27.2-52.3-63c-14-22.5-30.2-53.1-49.3-96.5c-18.8-42.4-44.2-74.6-67.6-97.7c40.4,48.8,74.1,175.1,82.1,198.1      c1.1,3.1,2.1,6,3.2,8.9c7.9,21.6,18.5,41.6,73.2,99.8c3.9,27.2-11.7,59.5-11.7,59.5s0,0-22,20.7c-22,20.7-1.3,66-1.3,66      l50.5-40.1c0,0-47.9,59.5-98.3,91.9c-41.4,11.7-64.7-3.9-64.7-3.9l-1.3,15.5c0,0-35.8-11.5-65.3-46c-5-5.9-9.9-12.5-14.4-19.9      c0,0,0-0.1-0.1-0.1c-0.2,0.9-0.1,2,0,3.1c0,0.1,0,0.2,0,0.2c0,0.3,0,0.6,0.1,0.9c0,0,0,0.1,0,0.1c0.1,0.5,0.2,1,0.4,1.5      c0,0.1,0,0.1,0.1,0.2c9.7,34.7,108.4,151.7,108.4,151.7l27.5-16.7c-0.5,0.6-3.8,4.6-25.6,31l0,0      c-45.1,81.9-77.7,243.5-94.6,344.1c19.2,24.2,42.1,51.4,68.4,79.6c-1.2-41.9-0.7-100.3,8-150.6c0,25.3,9.9,116.2,16.8,176.4      c64.6,65.2,146.2,132.1,239.8,176c57.4-26.9,110.3-62.5,157.5-101.1c-13.1-61.7-21.5-137.2-22.8-148.6c-0.1-0.9-0.1-1.7-0.1-2.6      c-18.3,1.4-59.4,6.8-102.7,28c45.3-46.6,111.4-49.1,111.4-49.1s0,0,0,0c1.1-0.3,20.2-6.1,46.4-5.2c2.8,0.1,5.7,0.3,8.6,0.5      c0.1,0,0.2,0,0.3,0c0.1,0,0.2,0,0.2,0c0,0,0,0,0,0c-15.5-7.2-55.7-29.1-101-71.7c5.6,2.3,11.4,4.8,17.4,7.5c0,0,0,0,0,0      c1,0.4,1.9,0.9,2.9,1.3c0.1,0,0.2,0.1,0.3,0.1c26.3,12.1,54.6,27.1,77.4,39.2c3.2,1.7,6.4,3.4,9.4,4.9c12,6.3,26.4,11.1,40,14.1      c2.5,0.5,4.9,1,7.3,1.5c3.6,0.7,7.1,1.2,10.5,1.6c12.6,1.5,22.9,1,27.7-1.6c7-3.8,28.3-6.8,49.5-9.7c14.3-1.9,28.5-3.8,38.4-5.9      c24.6-5.2,75.1-27.2,104.8-38.8C1258.9,1056.8,1251.2,1050.4,1240.9,1031z M715.5,1001.2c-42.7-11.7-95.8-31.1-110-54.4      c-14.2-23.3-20.7-40.1-31-64.7c-8.8-21-7.3-65.4-6.7-78.1v0c0.1-2.2,0.2-3.4,0.2-3.4s16.8,67.3,50.4,106.1      c33.7,38.8,22,46.6,66,56.9c28.5,6.7,46.7,17.7,61.5,29.3c0.1,0.1,0.3,0.2,0.4,0.3c0,0,0.1,0,0.1,0.1c0,0,0,0,0.1,0.1      c0.1,0,0.2,0.1,0.2,0.2c0.3,0.2,0.6,0.4,0.9,0.7c0,0,0.1,0.1,0.2,0.1c1.7,1.3,3.3,2.6,4.9,3.9c0.2,0.2,0.5,0.4,0.7,0.6h0      c0.9,0.8,1.8,1.5,2.7,2.3c0.5,0.4,0.9,0.8,1.4,1.2c2.6,2.2,5.1,4.3,7.6,6.4c0.4,0.3,0.7,0.6,1,0.9c0.8,0.7,1.6,1.3,2.3,1.9      c20.3,16.5,38.1,61.6,38.8,63.4C805.8,1073,757.5,1012.7,715.5,1001.2z M815.9,741.7c1.7-0.8,25.2-11.3,29-20      c-20.1,4.5-62.1,8.4-113.2-35.6c19.4-11,45.9-22.6,45.9-22.6s-7.1-15.5-33.7-20.7c59.5-22.7,85.4,20.7,97.1,29.1      c11.7,8.4,23.3-6.5,23.3-6.5c11,22.6-9,35.6-9,35.6s9.7,5.2,16.2,20.1C854.5,736.1,818.1,741.4,815.9,741.7z M855.2,754.7      c11-4.5,43.3-27.2,64.7-46.6c-4.5-1.9-25.9-20.1-25.9-20.1s0,0,0,6.5c-22.5-14.4-49.2-63.2-51-66.5      c15.3,20.9,106.7,78.1,106.7,78.1S914.1,752.1,855.2,754.7z" style="fill: #333333;"></path><linearGradient id="SVGID_1_" gradientUnits="userSpaceOnUse" x1="562.387" y1="734.1218" x2="1073.9075" y2="1036.7114" style=""><stop offset="0" style="stop-color: #333333; stop-opacity: 0;"></stop><stop offset="0.1416" style="stop-color: #3A3A3A; stop-opacity: 7.079409e-002;"></stop><stop offset="0.3403" style="stop-color: #4C4C4C; stop-opacity: 0.1701;"></stop><stop offset="0.5728" style="stop-color: #6A6A6A; stop-opacity: 0.2864;"></stop><stop offset="0.8288" style="stop-color: #939393; stop-opacity: 0.4144;"></stop><stop offset="1" style="stop-color: #B3B3B3; stop-opacity: 0.5;"></stop></linearGradient><path class="st6" d="M567,800.6L567,800.6c0,0,17.3,67.3,50.9,106.1c33.6,38.8,22.2,46.6,66.2,56.9      c28.5,6.7,46.8,17.7,61.7,29.3c0.2,0.1,0.5,0.3,0.7,0.4c0.1,0.1,0.2,0.2,0.3,0.3c2.3,1.6,4.5,2.3,6.6,5.3h0      c3.5,2,7.5,6.6,11.7,9.8c27.5,21,67.6,39.2,98.8,54.4c0.1,0,0.2,0,0.3,0.1c30.1,13.8,62.7,31.5,86.8,44.1      c17.5,9.1,39.9,15.1,57.7,17.2c12.6,1.5,22.9,1,27.7-1.6c11.7-6.4,63.4-10.4,87.9-15.6c24.6-5.2,75.1-27.2,104.8-38.8      s22-18.1,11.6-37.5c-10.4-19.4-49.2-31.1-75.1-49.2c-25.9-18.1-36.2-56.9-36.2-56.9s-25.9-10.4-32.4-23.3      c-2.7-5.4-6.5-13.5-10.8-21.6c0,0,0,0,0,0s-56.4-17.8-112.1,0c-55.6,17.8-68.6,54-89.3,41.1s-75.1-45.3-107.4-60.8      c-32.4-15.5-29.8,49.2-62.1-16.8s-22.5-64.3-50.9-71.6C636.1,764.4,567,776,567,800.6z" style="fill: url(#SVGID_1_);"></path><path class="st8" d="M775.4,688.5c0,0,22.9-16,34.5-12.5c11.6,3.5,37.5,34.5,37.5,34.5S793.1,730,775.4,688.5z" style="fill: #29ABE2;"></path><path class="st8" d="M1048.5,680.7c0,0,22.4-13.8,34.9-9.5s18.1,14.7,18.1,14.7s-15.1,19.8-27.2,19.4      C1062.3,704.9,1048.5,680.7,1048.5,680.7z" style="fill: #29ABE2;"></path><path class="st4" d="M1288.7,962.4c2.6,9,15.5,7.8,10.3,20.7c-2.5,6.4-10.4,13.7-19.8,19.3c-9.6,5.8-20.7,9.8-29.2,9.1     c-1.7-0.1-3.6-0.5-5.5-1.2c-17-5.4-41.2-27.3-41.2-27.3s12.7,0,24.4-4.5c4.9-1.9,9.7-4.6,13.2-8.5c11.6-13-16.8-19.4-38.8-22.7     c-10-1.5-15.4-1.2-18.9,0c-4.1,1.5-5.4,4.3-8.3,7.2c-5.2,5.2-10.3-3.9-22-27.2c-11.6-23.3,0-45.3,0-45.3     c1.9-6.1,10.8-8.1,21.3-8.6c13.2-0.7,29,0.9,36.9-0.5c8.2-1.5,13.4-0.4,20,0.3c0,0,0,0,0,0c4.9,0.5,10.6,0.9,19-0.2     c19.5-2.6,61.3,66.2,61.9,67.3c-0.2-0.1-1.4-1.1-11.7-9C1288.6,922.3,1286.1,953.3,1288.7,962.4z" style="fill: #333333;"></path><path class="st5" d="M1264.8,1031.6c0,0-5.8,12.9,3.2,22c9.1,9.1,5.2,20.1,10.4,16.8c5.2-3.2,5.8-43.3,9.1-49.8     C1270.6,1024.5,1264.8,1031.6,1264.8,1031.6z" style="fill: #808080;"></path><path class="st4" d="M1237.6,1084.7c0,0,33.6-1.9,16.2,7.1c-17.5,9.1-44,13.6-52.4,24.6c-8.4,11-7.1,31.1-25.9,31.1     c-18.8,0-88-9.7-83.5-9.7s70.5-23.9,89.9-33.6S1237.6,1084.7,1237.6,1084.7z" style="fill: #333333;"></path><path class="st9" d="M745.6,1404.1c-93.6-43.9-175.2-110.8-239.8-176c-6.9-60.1-16.8-151-16.8-176.4c-8.6,50.3-9.2,108.7-8,150.6     c-26.3-28.2-49.2-55.4-68.4-79.6c16.9-100.5,49.5-262.1,94.6-344.1l0,0c21.7-26.3,25.1-30.3,25.6-31l-27.5,16.7     c0,0-98.7-117-108.4-151.7c0-0.1,0-0.2-0.1-0.2c-0.2-0.5-0.3-1-0.4-1.5c0,0,0-0.1,0-0.1c0-0.3-0.1-0.6-0.1-0.9c0-0.1,0-0.2,0-0.2     c-0.2-1.2-0.2-2.2,0-3.1c0,0,0,0.1,0.1,0.1c4.5,7.3,9.3,14,14.4,19.9c17.7,30,53,87.4,69.2,97.8c-11.8-22.1-11.8-29.1-11.8-29.1     s26.9,31.5,61.6,37.8c34.7,6.3,42.6,5.5,42.6,5.5s-35.5,56.8-46.6,86c-11.1,29.2,12.6,30,0.8,71.1     c-11.8,41.1-36.3,56.8-40.3,101.1c40.3-28.4,55.3-33.2,55.3-33.2s-29.2,95.5-15,165c14.2,69.5,30.8,48.2,56.8,103.4     c-18.9-71.8-16.6-78.9-16.6-78.9s18.9,27.6,43.4,55.3c24.5,27.6,18.9,27.6,41.8,79C675,1338.6,745.6,1404.1,745.6,1404.1z" style="fill: #4D4D4D;"></path><path d="M655.9,642.8c12.9,7.7,14.9,27.8,14.9,27.8s-14.2-12.3-35.6-18.8c-21.1-6.4-66,18.1-67.3,18.7      C586.7,640.2,643,635,655.9,642.8z" style=""></path><path d="M695.4,547.7c0,0,26.5,8.4,49.8,25.6c17.1,1.8,30.7-4.6,37.1,13.8c1.7,1.1,6.8,11.4,6.9,11.8c0.2,0.4-0.9-0.5-2.8-2.2      c-7.3-4.6-27.5-14.1-47-14.6c-23.9-0.7-49.2-9.7-49.2-9.7s0,0,33-1.3L695.4,547.7z" style=""></path><path d="M777.6,790.8c-36.4-9.3-53.3-60.6-54.3-63.8c1.7,2.9,24.4,41.8,54.3,44.7c31,3,77.6,0,77.6,0S815.1,800.3,777.6,790.8z" style=""></path><path class="st10" d="M971.5,1126.7c0,0-106.1-62.8-165-92c-63.8-31.6-139.1-67.6-139.1-67.6s60.4,42.6,72.3,53.5    c11.9,10.9,21.3,30.6,13,72c-5.6,27.9,18.9,51,35.5,63.1c20.1-7.8,50.3-18.1,73.9-20c-33.4,13.9-51.7,22.8-61.6,28.1    c0.5,0.3,1,0.6,1.3,0.8c-23.8,14.1-57.8,38.7-85,72.2c40.8-27.9,88.3-44.8,112.6-52.3c5.2,2.9,11.2,5.9,18.1,8.8    c30.8,13,7.1,24.9-24.3,69.9c-31.4,45,0,95.6,0,95.6c9,20.5,98.9-55.3,98.9-55.3l-27.2-156L971.5,1126.7z" style="opacity: 0.4;"></path><path class="st9" d="M1008.9,567.3c-27.6-17.4-33.2-37.1-43.4-79.7c8.7,12.6,32.4,16.6,32.4,16.6s0.8-6.3,9.5-23.7     c8.7-17.4-6.3-57.6-5.5-85.3c0.8-27.6,18.1-41.9,33.9-63.9c13.5-18.9,43.6-99.2,52.2-122.4c1.5-4,2.3-6.3,2.3-6.3l0.7,1.1     l0.4,0.5c-3.3,12-6.9,23.2-10.6,32.4c-4.1,10.3-8.8,21.2-13.4,31.8c-19,44.3-36.9,86.2-33.4,116.7c0.6,4.8,1.1,10.4,1.5,16.7     c2.1,29.2,2.5,70.8-1.3,92.3c-3.3,18.6-3.6,33.8-3.1,44.1c-10.2-5.7-26.4-15.6-34.9-24.9c19.4,36.2,44.3,56.7,44.3,56.7     c7.3,12.5,21.6,33.9,41.1,50.7c22.8,19.5,22.2,22.5,21.5,26.9c0,0-5.6-1.7-13-1.7h0c-1,0-30.2-31.1-41.8-47.4     C1036.7,582.1,1036.6,584.6,1008.9,567.3z" style="fill: #4D4D4D;"></path><path class="st9" d="M1210.7,865l-1.1,0.4l-0.9,0.3c0,0-0.4-0.2-1.1-0.7c-5-3-25.7-15.4-36-22.9c-11.8-8.6-30-37.2-30-37.2     s0,0-0.8,8.7c-18.1-19.8-35.5-26.9-65.8-40.3c-30.2-13.4-51.8-67.9-51.8-67.9s0,0-2.4,16.6c-4-17.4-6.3-22.1-4.7-46.5     c1.6-24.4,21.6-68.9,21.6-68.9s-11.7,77.6,0,93.2c9.9,13.3,50.9,51.5,62.6,62.3c0,0,0.1,0.1,0.1,0.1c0.8,0.9,1.8,1.7,2.7,2.5     l0.1,0.1c0.1,0,0.1,0.1,0.1,0.1s0,0,0,0c16.1,12.6,28.8,23.2,38.9,32.1c26.8,23.5,35.5,35.3,41.3,43.3     c4.3,5.8,8.7,11.8,16.5,17.9C1203.6,860.8,1207.1,863,1210.7,865z" style="fill: #4D4D4D;"></path><path class="st9" d="M1288.7,962.4c2.6,9,15.5,7.8,10.3,20.7c-2.5,6.4-10.4,13.7-19.8,19.3c11-12.1,10.5-25.1,8.1-27    c-2.9-2.4-16-27.2-12.2-40.3c3.7-13,11.6-10.7,12.2-18.9c0.6-8.3-12.4-14.2-24.5-20.1c-10.3-5-27.1-18.8-31.8-22.7    c4.9,0.5,10.6,0.9,19-0.2c19.5-2.6,61.3,66.2,61.9,67.3c-0.2-0.1-1.4-1.1-11.7-9C1288.6,922.3,1286.1,953.3,1288.7,962.4z" style="fill: #4D4D4D;"></path><path class="st9" d="M958.8,600.1c-5.2-19.4-25.9-32.3-40.1-38.7c-14.2-6.5-37.5-24.4-37.5-24.4s-10.4-17.8-25.9-37.2    c-1.2-1.5-2.7-3-4.5-4.5c-0.1,0-0.1-0.1-0.2-0.1c-1.9-1.5-3.9-3-6-4.6c-17.7-12.2-48.3-24.8-64.8-31.2c-4.6,0.1-9.1,0.1-13.6,0.2    c0,0,0,0,0,0c-1.1,0-2.1,0.1-3.2,0.1c-0.9,0-1.9,0-2.8,0.1c-5.3,0.1-10.4,0.3-15.4,0.5c-0.8,0-1.5,0.1-2.2,0.1    c-1.3,0-2.6,0.1-3.9,0.1c-2.2,0.1-4.3,0.2-6.4,0.3c0,0-2.7,0.8-7.1,2.5c-12.9,4.7-41,16.1-64.1,33.4c0-0.1,0-0.1,0-0.2    c-14,19-32.1,49.3-33.3,51.2c1.5-2,25.4-34.1,42.9-36.9c18.1-3,21.5-23.1,42.3-29c20.6-5.9,59.4-10.7,59.9-10.8    c13.6,3.5,27,8.3,38.4,14.4c32.3,17.4,41.9,42.7,53,62.6c11,19.9,20.4,10.2,43.9,14.9c23.5,4.7,50.5,50.7,50.5,50.7l7.9,11.1    C963.1,614.7,960.3,606,958.8,600.1z" style="fill: #4D4D4D;"></path><path class="st9" d="M1183.1,947.5c-4.1,1.5-5.4,4.3-8.3,7.2c-5.2,5.2-10.3-3.9-22-27.2c-11.6-23.3,0-45.3,0-45.3     c1.9-6.1,10.8-8.1,21.3-8.6c-3.5,4.1-13.5,17.4-10.5,33.2c3.6,18.9,5.5,27.6,11.7,31C1181.4,941.1,1183.1,947.5,1183.1,947.5z" style="fill: #4D4D4D;"></path><path class="st9" d="M1244.5,1010.3c-17-5.4-41.2-27.3-41.2-27.3s12.7,0,24.4-4.5C1231.6,986.1,1237.3,996.9,1244.5,1010.3z" style="fill: #4D4D4D;"></path><path class="st9" d="M1144.7,994.5c2.7-1.4,13,4.7,8.9,7.9s-3.6,3.2-8.9,3.2S1136.4,998.8,1144.7,994.5z" style="fill: #4D4D4D;"></path><path class="st9" d="M1158.9,1015.8c2.7-1.4,13,4.7,8.9,7.9c-4.1,3.2-3.6,3.2-8.9,3.2S1150.6,1020.1,1158.9,1015.8z" style="fill: #4D4D4D;"></path><path class="st9" d="M1175.5,1046.6c2.7-1.4,13,4.7,8.9,7.9c-4.1,3.2-3.6,3.2-8.9,3.2C1170.2,1057.7,1167.2,1050.9,1175.5,1046.6     z" style="fill: #4D4D4D;"></path><path class="st9" d="M1128.1,1070.3c2.7-1.4,13,4.7,8.9,7.9c-4.1,3.2-3.6,3.2-8.9,3.2S1119.9,1074.6,1128.1,1070.3z" style="fill: #4D4D4D;"></path><path class="st9" d="M1140,1046.6c2.7-1.4,13,4.7,8.9,7.9c-4.1,3.2-3.6,3.2-8.9,3.2S1131.7,1050.9,1140,1046.6z" style="fill: #4D4D4D;"></path><path class="st9" d="M1090.2,1070.3c2.7-1.4,13,4.7,8.9,7.9c-4.1,3.2-3.6,3.2-8.9,3.2C1084.9,1081.4,1082,1074.6,1090.2,1070.3z" style="fill: #4D4D4D;"></path><path class="st9" d="M1104.5,1027.6c2.7-1.4,13,4.7,8.9,7.9c-4.1,3.2-3.6,3.2-8.9,3.2S1096.2,1031.9,1104.5,1027.6z" style="fill: #4D4D4D;"></path><path class="st9" d="M1057.1,1039.5c2.7-1.4,13,4.7,8.9,7.9c-4.1,3.2-3.6,3.2-8.9,3.2C1051.8,1050.6,1048.8,1043.8,1057.1,1039.5     z" style="fill: #4D4D4D;"></path><path class="st9" d="M1128.1,1015.8c2.7-1.4,13,4.7,8.9,7.9s-3.6,3.2-8.9,3.2S1119.9,1020.1,1128.1,1015.8z" style="fill: #4D4D4D;"></path><path class="st9" d="M1064.2,1004c2.7-1.4,13,4.7,8.9,7.9s-3.6,3.2-8.9,3.2S1055.9,1008.2,1064.2,1004z" style="fill: #4D4D4D;"></path><path class="st9" d="M1021.6,985c2.7-1.4,13,4.7,8.9,7.9c-4.1,3.2-3.6,3.2-8.9,3.2S1013.3,989.3,1021.6,985z" style="fill: #4D4D4D;"></path><path class="st9" d="M1097.4,989.8c2.7-1.4,13,4.7,8.9,7.9c-4.1,3.2-3.6,3.2-8.9,3.2C1092,1000.9,1089.1,994,1097.4,989.8z" style="fill: #4D4D4D;"></path><path class="st4" d="M1077.2,1172.3c0,0-41.4,0-60.8-4.4s-71.5-13.1-71.5-13.1s89-5.7,114.1-2.7s59.7,8.2,59.7,8.2L1077.2,1172.3z" style="fill: #333333;"></path><path class="st4" d="M411.6,366.9c0,0-8,71.9-9.3,87.7s-4.9,37.1-10.2,55c3.5-52.3,4.1-58.6,0-76.2s-4.7-43.3-4.7-43.3L411.6,366.9   z" style="fill: #333333;"></path></svg> <svg x="234.91" y="248" viewBox="-0.6800000071525574 8.640000343322754 61.7400016784668 25.020000457763672" height="25.020000457763672" width="61.7400016784668" style="overflow: visible;"><g fill="#808080" fill-opacity="1" style=""><path d="M22.14 33.66L15.08 33.66L13.97 28.55L7.34 28.55L6.23 33.66L-0.68 33.66L6.73 8.64L14.72 8.64L22.14 33.66ZM10.66 13.39L8.39 23.80L12.92 23.80L10.66 13.39ZM42.52 8.64L36.00 20.20L43.09 33.66L35.86 33.66L31.97 24.62L28.26 33.66L21.20 33.66L28.04 20.38L21.71 8.64L28.87 8.64L32.04 16.24L35.50 8.64L42.52 8.64ZM44.78 8.64L51.44 8.64L51.44 28.48L61.06 28.48L60.34 33.66L44.78 33.66L44.78 8.64Z" transform="translate(0, 0)"></path></g></svg></svg>