<svg width="153" height="37" viewBox="0 0 153 37" fill="none" xmlns="http://www.w3.org/2000/svg">
<path d="M17.687 0.287313C27.5027 0.287313 35.4202 8.32378 35.4202 18.3341C35.4202 28.2035 27.4101 36.3339 17.548 36.2869C8.01006 36.1929 0 28.2034 0 18.2871C0 8.32378 7.87116 0.240316 17.687 0.287313ZM4.21338 27.6865C4.21338 27.8745 4.30599 27.9685 4.39859 28.1095C5.0931 29.0964 5.88022 30.0363 6.80624 30.8353C7.22294 31.2112 7.63965 31.5872 8.10266 31.9162C9.39909 32.7621 10.7418 33.5611 12.2234 34.0781C13.4273 34.501 14.6774 34.83 15.9275 34.971C16.8998 35.065 17.9185 35.112 18.8908 34.971C19.4464 34.877 20.0483 34.877 20.6039 34.642C20.6965 34.689 20.7428 34.595 20.7891 34.595C21.9466 34.407 23.0579 34.0311 24.1691 33.5611C27.7806 31.9632 30.5123 29.3784 32.2717 25.8066C33.846 22.6578 34.3553 19.321 33.846 15.8433C33.383 12.5065 31.9939 9.59269 29.7715 7.14886C26.8082 3.71808 23.0116 1.9322 18.5204 1.65022C16.5294 1.50923 14.5385 1.79121 12.6402 2.44917C9.53799 3.4831 6.99144 5.26898 4.9079 7.85381C2.54655 10.8146 1.38903 14.1984 1.25012 17.9581C1.20382 18.8981 1.29643 19.791 1.43533 20.7309C1.71313 22.8458 2.40765 24.8667 3.47257 26.6996C3.75037 26.9815 3.93558 27.3575 4.21338 27.6865Z" fill="#8DC63F"/>
<path d="M20.6038 34.5958C20.0482 34.8778 19.4463 34.8778 18.8907 34.9248C17.9184 35.0658 16.8998 35.0188 15.9275 34.9248C14.6773 34.7838 13.4272 34.4548 12.2234 34.0318C10.7417 33.5149 9.39902 32.7159 8.10259 31.87C7.63959 31.541 7.22288 31.165 6.80617 30.7891C5.88015 29.9901 5.09304 29.0502 4.39852 28.0632C4.30592 27.9222 4.21332 27.7813 4.21332 27.6403C5.32454 25.1024 5.74125 22.4236 5.97275 19.6978C6.06535 18.4289 6.11166 17.16 6.34316 15.8911C6.57466 14.4342 7.13028 13.1182 8.1489 11.9903C9.07491 11.0034 10.2324 10.3454 11.4826 9.87546C12.5012 9.45248 13.5661 9.07651 14.7236 9.02951C15.7885 8.98252 16.8072 9.12351 17.8258 9.35849C19.3537 9.73446 20.8816 10.2044 22.317 10.9094C23.4745 11.3794 24.6783 11.8493 25.8821 12.2253C27.1323 12.6013 28.3824 13.0242 29.4473 13.8232C30.79 14.8571 31.1605 16.173 30.5585 17.7709C30.1881 18.7579 29.4936 19.5098 28.7991 20.2618C27.549 21.5777 26.2063 22.7996 25.0024 24.1625C23.6134 25.8074 22.3633 27.4993 21.4836 29.4731C20.7427 31.118 20.326 32.8099 20.6038 34.5958ZM29.5399 19.1338C29.4936 19.1338 29.4473 19.1338 29.401 19.1808C29.3547 19.1808 29.3084 19.2278 29.3084 19.2748C29.3084 19.2748 29.3084 19.2748 29.3084 19.3218C29.3547 19.3218 29.401 19.2748 29.401 19.2278L29.5399 19.1338C29.5862 19.1338 29.6325 19.1338 29.5399 19.1338C29.5862 19.0868 29.5399 19.1338 29.5399 19.1338ZM15.3718 10.9564C13.6124 10.9564 12.1771 12.4133 12.1771 14.1522C12.1771 15.938 13.6124 17.348 15.3255 17.395C17.085 17.395 18.474 15.938 18.5203 14.1522C18.5203 12.3663 17.1313 10.9564 15.3718 10.9564ZM17.9647 20.8257C18.2425 21.2487 18.7518 21.6247 19.3537 21.8127C20.5575 22.2356 21.7614 22.2356 22.9652 22.0006C25.095 21.5777 27.086 20.8257 28.8917 19.6038C28.9843 19.5098 29.1695 19.5098 29.2158 19.3218C29.1232 19.2748 29.0769 19.3218 29.0306 19.3688C28.4287 19.7448 27.7805 20.0268 27.1323 20.3088C25.4654 21.0137 23.706 21.4837 21.854 21.5777C20.5112 21.6717 19.1685 21.5777 17.9647 20.8257ZM26.7156 18.0529C27.086 18.0529 27.4101 17.7239 27.4101 17.301C27.4101 16.925 27.086 16.596 26.6693 16.643C26.2989 16.643 26.021 16.972 26.021 17.348C26.021 17.7709 26.2989 18.0529 26.7156 18.0529Z" fill="#8BC53F"/>
<path d="M17.7796 9.35826C16.7609 9.17027 15.7423 8.98228 14.6774 9.02928C13.5199 9.07628 12.5013 9.45225 11.4363 9.87522C10.1862 10.3452 9.0287 11.0031 8.10268 11.9901C7.08406 13.071 6.52845 14.3869 6.29694 15.8908C6.11174 17.1597 6.06544 18.4286 5.92653 19.6976C5.69503 22.4234 5.27832 25.1492 4.1671 27.64C3.84299 27.3581 3.65779 26.9351 3.47259 26.6061C2.40767 24.7732 1.71315 22.7524 1.43535 20.6375C1.29644 19.6976 1.20384 18.8046 1.25014 17.8647C1.38905 14.1049 2.54657 10.7212 4.90791 7.76036C6.94515 5.17554 9.538 3.38966 12.6402 2.35573C14.5385 1.74477 16.5294 1.46279 18.5204 1.55678C22.9653 1.83876 26.7619 3.67164 29.7715 7.00842C31.9939 9.49925 33.3367 12.4131 33.846 15.7028C34.3553 19.1806 33.846 22.5174 32.2717 25.6662C30.5123 29.2379 27.7806 31.8228 24.1691 33.4207C23.1042 33.8906 21.993 34.2666 20.7891 34.4546C20.6965 34.4546 20.6502 34.5956 20.6039 34.5016C20.3261 32.7157 20.7428 31.0238 21.4373 29.3789C22.3171 27.4051 23.5672 25.7132 24.9562 24.0683C26.1137 22.7054 27.4565 21.4364 28.7529 20.1675C29.4937 19.4156 30.1419 18.6636 30.5123 17.6767C31.1605 16.0788 30.7901 14.7629 29.4011 13.729C28.3362 12.93 27.086 12.507 25.8359 12.1311C24.6321 11.7551 23.4283 11.2851 22.2708 10.8152C22.0392 10.0162 21.4836 9.49925 20.7428 9.21727C19.7705 8.98228 18.7982 9.07628 17.7796 9.35826ZM32.92 19.3686H33.0126C33.1978 18.7106 33.1978 18.0057 33.1978 17.3007C33.1978 16.5018 33.1052 15.7028 32.9663 14.9039C32.457 12.3191 31.2994 10.0632 29.4937 8.13634C28.3825 6.96142 27.1324 5.97448 25.8822 4.94055C24.771 4.00062 23.5672 3.29566 22.1782 2.91969C20.8354 2.59071 19.539 2.40272 18.15 2.63771C18.0574 2.63771 17.9648 2.63771 17.9648 2.7317C17.9648 2.82569 18.0574 2.82569 18.15 2.82569C20.1872 3.20167 22.1319 3.85963 24.0302 4.61157C25.8822 5.36352 27.4565 6.44445 28.614 8.13634C29.4011 9.31126 30.1419 10.5332 30.7438 11.8491C31.5309 13.635 32.1328 15.4678 32.5033 17.3477C32.6885 18.0997 32.8274 18.7106 32.92 19.3686Z" fill="#F9E988"/>
<path d="M15.3719 10.9561C17.1313 10.9561 18.5203 12.413 18.5203 14.1518C18.5203 15.9377 17.085 17.3476 15.3256 17.3946C13.5662 17.3946 12.1771 15.9377 12.1771 14.1518C12.1771 12.366 13.6125 10.9561 15.3719 10.9561ZM17.5943 14.1988C17.5943 12.9299 16.622 11.943 15.3719 11.943C14.1218 11.943 13.1494 12.9299 13.1494 14.1988C13.1494 15.4208 14.1218 16.4547 15.3256 16.4547H15.3719C16.5757 16.4547 17.548 15.4678 17.5943 14.1988Z" fill="#FCFDFB"/>
<path d="M17.9647 20.8256C19.1686 21.5775 20.5113 21.6715 21.854 21.6245C23.7061 21.5305 25.4655 21.1075 27.1323 20.3556C27.7805 20.0736 28.4288 19.7916 29.0307 19.4157C29.077 19.3687 29.1233 19.3217 29.2159 19.3687C29.1696 19.5097 29.0307 19.5567 28.8918 19.6506C27.086 20.8726 25.0951 21.6245 22.9652 22.0475C21.7614 22.2825 20.5113 22.2825 19.3538 21.8595C18.7519 21.6245 18.1962 21.2485 17.9647 20.8256ZM17.7795 9.35833C18.7519 9.07635 19.7705 8.98236 20.7428 9.35833C21.4836 9.64031 22.0392 10.1573 22.2707 10.9562C20.8817 10.2043 19.3538 9.73431 17.7795 9.35833Z" fill="#009345"/>
<path d="M17.9646 20.8255C19.1684 21.5774 20.5112 21.6714 21.8539 21.6244C23.7059 21.5304 25.4653 21.1075 27.1322 20.3555C27.7804 20.0735 28.4286 19.7916 29.0305 19.4156C29.0768 19.3686 29.1231 19.3216 29.2157 19.3686C29.1694 19.5096 29.0305 19.5566 28.8916 19.6506C27.0859 20.8725 25.0949 21.6244 22.9651 22.0474C21.7613 22.2824 20.5112 22.2824 19.3536 21.8594C18.7517 21.6244 18.1961 21.2485 17.9646 20.8255Z" fill="#5D6357"/>
<path d="M26.7159 18.053C26.3455 18.053 26.0214 17.724 26.0214 17.348C26.0214 16.972 26.2992 16.6431 26.6696 16.6431C27.04 16.6431 27.3641 16.925 27.4104 17.301C27.3641 17.724 27.0863 18.053 26.7159 18.053Z" fill="#FCFDFB"/>
<path d="M29.401 19.2273C29.401 19.2743 29.3547 19.3213 29.3084 19.3213C29.3084 19.2273 29.3547 19.1803 29.401 19.2273ZM29.5399 19.1333L29.401 19.2273L29.3547 19.1803C29.4473 19.1333 29.4936 19.1333 29.5399 19.1333Z" fill="#A9ACBF"/>
<path d="M32.92 19.3685C32.781 18.7105 32.6421 18.0996 32.5495 17.4416C32.1791 15.5147 31.5309 13.6818 30.7901 11.943C30.2345 10.6271 29.4937 9.40513 28.6603 8.23021C27.5027 6.53833 25.9748 5.4574 24.0765 4.70545C22.1318 3.9535 20.2335 3.24855 18.1963 2.91957C18.1036 2.91957 18.011 2.91957 18.011 2.82557C18.011 2.73158 18.1036 2.73158 18.1963 2.73158C19.539 2.4966 20.8817 2.63759 22.2244 3.01356C23.6135 3.38954 24.8173 4.14149 25.9285 5.03443C27.1786 6.06836 28.4288 7.05529 29.54 8.23021C31.3457 10.1571 32.5032 12.4129 33.0126 14.9978C33.1515 15.7967 33.2441 16.5957 33.2441 17.3946C33.2441 18.0526 33.2441 18.7575 33.0589 19.4625L32.92 19.3685Z" fill="#FFFEFC"/>
<path d="M17.5944 14.1988C17.5944 15.4208 16.622 16.4547 15.4182 16.4547H15.3719C14.1681 16.4547 13.1495 15.4678 13.1495 14.1988V14.1518C13.1495 12.8829 14.1681 11.896 15.3719 11.896C16.5757 11.896 17.5944 12.9299 17.5944 14.1988Z" fill="#58595B"/>
<path d="M103.973 24.1314C103.918 24.1865 103.864 24.1865 103.81 24.2416C102.126 26.1713 100.008 26.5021 97.7264 25.8956C94.902 25.1789 93.3811 23.139 92.7836 20.3272C92.4034 18.5078 92.512 16.6884 93.2182 14.9793C94.4674 11.947 97.2919 10.293 100.497 10.7341C101.963 10.9546 103.321 11.4508 104.353 12.5535C105.113 13.3805 105.548 14.3728 105.711 15.4755C105.765 15.696 105.657 15.7512 105.494 15.7512C104.842 15.7512 104.136 15.7512 103.484 15.7512C103.321 15.7512 103.267 15.696 103.212 15.5306C102.886 14.042 101.909 13.2151 100.497 12.9394C98.8671 12.6086 97.4548 12.9394 96.3685 14.2626C95.3908 15.4755 95.1192 16.9641 95.1192 18.5078C95.1192 19.6656 95.3365 20.7683 95.8253 21.7606C96.966 23.966 99.7904 24.7378 101.909 23.4698C103.104 22.753 103.484 21.5953 103.593 20.2721C103.593 19.9964 103.43 20.0515 103.267 20.0515C102.18 20.0515 101.148 20.0515 100.062 20.0515C99.7361 20.0515 99.6818 19.9413 99.6818 19.6656C99.6818 19.2245 99.6818 18.8386 99.6818 18.3975C99.6818 18.1219 99.7904 18.0667 100.008 18.0667C101.854 18.0667 103.756 18.0667 105.602 18.0667C105.82 18.0667 105.928 18.1219 105.928 18.3424C105.928 20.7683 105.928 23.139 105.928 25.5648C105.928 25.7853 105.874 25.8405 105.657 25.8405C105.222 25.8405 104.679 25.9507 104.353 25.7853C104.027 25.5648 104.136 25.0135 104.027 24.5724C104.027 24.407 103.973 24.2416 103.973 24.1314ZM60.9542 15.7512C60.6283 15.7512 60.3024 15.7512 59.9222 15.7512C59.7049 15.7512 59.6506 15.696 59.5963 15.4755C59.1617 13.9318 58.184 12.9945 56.6089 12.8291C54.8707 12.6637 53.4042 13.2151 52.5351 14.8139C51.2315 17.2398 51.2858 19.7207 52.5894 22.0914C53.4585 23.6903 55.3596 24.407 57.0977 23.9108C58.6186 23.4698 59.3247 22.312 59.6506 20.8234C59.7592 20.2169 59.7592 20.2169 60.3567 20.2169C60.8999 20.2169 61.443 20.2169 61.9862 20.2169C62.2035 20.2169 62.2578 20.2721 62.2035 20.4926C61.9319 23.4146 60.0851 25.6751 57.2607 26.1161C53.1869 26.7777 49.8193 24.2416 49.1675 20.1067C48.8959 18.2873 49.0589 16.523 49.765 14.8139C51.0143 11.947 53.7844 10.4033 56.8804 10.7892C58.347 11.0097 59.7049 11.5059 60.7912 12.6086C61.5517 13.4356 61.9862 14.428 62.1491 15.5306C62.2035 15.7512 62.1491 15.8063 61.9319 15.8063C61.6603 15.696 61.2801 15.7512 60.9542 15.7512ZM140.908 25.7853C139.985 25.7853 139.17 25.7853 138.301 25.7853C138.084 25.7853 137.975 25.6751 137.921 25.5097C136.997 23.966 136.02 22.4774 135.096 20.9337C134.933 20.658 134.879 20.658 134.607 20.8785C133.684 21.5401 133.304 22.4222 133.467 23.58C133.575 24.1865 133.467 24.8481 133.467 25.5097C133.467 25.7853 133.358 25.8405 133.141 25.8405C132.598 25.8405 132.054 25.8405 131.511 25.8405C131.24 25.8405 131.185 25.7302 131.185 25.4546C131.185 23.1941 131.185 20.9337 131.185 18.6181C131.185 16.2474 131.185 13.8766 131.185 11.4508C131.185 11.0649 131.294 10.9546 131.674 11.0097C132.163 11.0649 132.652 11.0649 133.141 11.0097C133.467 11.0097 133.521 11.12 133.521 11.3957C133.521 13.8766 133.521 16.3576 133.521 18.8386V19.2797L133.63 19.3348C133.793 19.1143 134.01 18.8937 134.173 18.6732C135.259 17.5154 136.345 16.4128 137.486 15.255C137.595 15.1447 137.703 15.0344 137.866 15.0344C138.735 15.0344 139.604 15.0344 140.473 15.0344C140.473 15.1998 140.311 15.255 140.256 15.3652C139.116 16.4679 138.029 17.5706 136.834 18.6732C136.563 18.8937 136.563 19.0591 136.78 19.3899C138.084 21.3747 139.387 23.3595 140.691 25.3443C140.691 25.5097 140.799 25.62 140.908 25.7853ZM114.076 21.0439C112.881 21.0439 111.74 21.0439 110.545 21.0439C110.274 21.0439 110.219 21.0991 110.219 21.3747C110.328 23.5249 112.283 24.8481 114.239 24.0211C114.782 23.8006 115.216 23.3595 115.434 22.753C115.542 22.4774 115.705 22.4222 115.922 22.4222C116.411 22.4222 116.954 22.4222 117.443 22.4222C117.715 22.4222 117.769 22.4774 117.661 22.753C117.063 24.6827 115.759 25.7302 113.804 26.0059C112.066 26.2815 110.436 25.8956 109.187 24.5724C108.318 23.6352 107.938 22.4222 107.829 21.1542C107.721 19.6105 107.938 18.1219 108.916 16.7987C110.165 15.1447 111.849 14.5382 113.804 14.869C115.868 15.255 117.117 16.5782 117.715 18.5629C117.932 19.2797 117.986 19.9964 117.932 20.7683C117.932 21.0439 117.824 21.0991 117.606 21.0991C116.466 21.0439 115.271 21.0439 114.076 21.0439ZM112.935 19.5002C113.75 19.5002 114.565 19.5002 115.325 19.5002C115.597 19.5002 115.651 19.4451 115.597 19.1694C115.379 17.736 114.347 16.6884 112.989 16.6333C111.577 16.5782 110.436 17.5706 110.219 19.0591C110.165 19.3348 110.219 19.4451 110.545 19.4451C111.36 19.5002 112.12 19.5002 112.935 19.5002ZM63.7786 20.4375C63.7786 19.7759 63.8873 19.0591 64.0502 18.3975C64.7563 16.082 66.766 14.6485 69.2646 14.8139C71.1657 14.9242 72.7408 15.5858 73.6642 17.2949C74.7506 19.3899 74.7506 21.5953 73.6099 23.6352C72.5779 25.5648 70.7855 26.1713 68.7214 26.061C65.6254 25.8956 63.7786 23.7454 63.7786 20.4375ZM66.1142 20.4375C66.1142 21.3747 66.2772 22.2017 66.8204 22.9736C67.6894 24.2416 69.3732 24.6276 70.6225 23.7454C70.8941 23.5249 71.1657 23.3044 71.3829 23.0287C72.3063 21.6504 72.3606 19.3348 71.3829 17.9013C70.2423 16.2474 67.8524 16.2474 66.766 17.9565C66.2772 18.6732 66.1142 19.5553 66.1142 20.4375ZM141.505 20.4926C141.505 18.9489 141.831 17.5706 142.863 16.4128C143.895 15.1998 145.308 14.7588 146.829 14.7588C148.349 14.7588 149.762 15.1998 150.848 16.4128C151.989 17.736 152.26 19.3348 152.152 21.0439C152.097 21.6504 151.989 22.2568 151.771 22.8082C150.957 24.9584 149.001 26.1713 146.503 26.0059C143.57 25.8405 141.723 23.9108 141.56 20.9337C141.56 20.8234 141.505 20.6029 141.505 20.4926ZM149.816 20.6029C149.816 19.5002 149.544 18.5629 149.164 17.9013C148.349 16.5782 146.611 16.2474 145.362 17.0744C145.036 17.2949 144.764 17.5705 144.547 17.9013C143.624 19.2797 143.678 21.5953 144.547 22.9184C145.416 24.1865 147.1 24.5724 148.349 23.6903C148.675 23.4698 148.893 23.2492 149.11 22.9184C149.653 22.2017 149.816 21.3196 149.816 20.6029ZM83.4412 16.5782C84.093 15.7512 84.8534 15.1447 85.8854 14.869C86.8088 14.6485 87.7322 14.7036 88.6013 15.0896C89.9048 15.6409 90.448 16.7987 90.5023 18.177C90.5566 20.6029 90.5023 23.0287 90.5023 25.4546C90.5023 25.7302 90.448 25.7853 90.1764 25.7853C89.6333 25.7853 89.0901 25.7853 88.5469 25.7853C88.2754 25.7853 88.1667 25.7302 88.1667 25.3994C88.1667 23.3595 88.1667 21.2645 88.1667 19.2245C88.1667 18.7835 88.1124 18.3424 88.0038 17.9565C87.6779 16.8538 86.6459 16.4128 85.3966 16.7436C84.3103 17.0744 83.6041 18.0667 83.6041 19.3348C83.6041 21.3196 83.6041 23.3595 83.6041 25.3443C83.6041 25.6751 83.5498 25.8405 83.1696 25.7853C82.6808 25.7302 82.1376 25.7302 81.6488 25.7853C81.3772 25.7853 81.2685 25.7302 81.2685 25.3994C81.2685 23.8557 81.2685 22.3671 81.2685 20.8234C81.2685 19.0591 81.2685 17.2949 81.2685 15.5306C81.2685 15.1447 81.3772 15.0344 81.7574 15.0896C82.2462 15.1447 82.6808 15.0896 83.1696 15.0896C83.4412 15.0896 83.5498 15.1447 83.4955 15.4204C83.4412 15.8063 83.4412 16.1922 83.4412 16.5782ZM127.981 18.6732C127.926 18.6732 127.872 18.6732 127.818 18.6732C127.22 18.7283 126.84 18.6732 126.568 17.9565C125.917 16.3025 123.309 16.2474 122.223 17.7911C121.843 18.2873 121.68 18.8937 121.571 19.5553C121.463 20.6029 121.463 21.6504 121.897 22.6428C122.44 23.8557 123.418 24.407 124.667 24.2416C125.699 24.0762 126.406 23.4146 126.677 22.2568C126.731 21.926 126.894 21.8158 127.22 21.8709C127.763 21.8709 128.252 21.8709 128.795 21.8709C129.067 21.8709 129.121 21.9812 129.067 22.2017C128.524 24.8481 126.677 26.3367 123.961 26.1713C121.245 26.0059 119.453 24.1865 119.236 21.3747C119.127 20.1618 119.236 18.9489 119.725 17.7911C120.539 15.8614 122.386 14.7588 124.559 14.869C125.862 14.9242 127.057 15.255 128.035 16.1922C128.632 16.7987 128.958 17.5706 129.121 18.3975C129.176 18.6732 129.067 18.7835 128.795 18.7283C128.578 18.6732 128.307 18.6732 127.981 18.6732ZM78.7157 20.4926C78.7157 22.0914 78.7157 23.6903 78.7157 25.2892C78.7157 25.7302 78.607 25.8405 78.2268 25.7853C77.738 25.7302 77.3034 25.7302 76.8146 25.7853C76.4887 25.7853 76.38 25.7302 76.38 25.3443C76.38 22.4774 76.38 19.6105 76.38 16.7436C76.38 16.3025 76.38 15.8614 76.38 15.4204C76.38 15.1447 76.4344 15.0896 76.7059 15.0896C77.2491 15.0896 77.7923 15.0896 78.3354 15.0896C78.6613 15.0896 78.77 15.1447 78.77 15.5306C78.7157 17.1846 78.7157 18.8386 78.7157 20.4926ZM77.6293 11.0097C77.9552 11.0649 78.4441 10.8443 78.6613 11.0649C78.8786 11.2854 78.7157 11.7816 78.7157 12.1675C78.7157 12.4983 78.8786 12.9394 78.6613 13.1599C78.4441 13.3805 78.0095 13.2151 77.6836 13.2151C77.2491 13.2151 76.7059 13.3805 76.4344 13.1599C76.2171 12.8843 76.38 12.3329 76.38 11.947C76.38 11.0097 76.3801 11.0097 77.3034 11.0097H77.6293Z" fill="#222"/>
</svg>
